ISO-10303-21;
HEADER;
/* Generated by software containing ST-Developer
 * from STEP Tools, Inc. (www.steptools.com) 
 */

FILE_DESCRIPTION(
/* description */ (''),
/* implementation_level */ '2;1');

FILE_NAME(
/* name */ 'Case.step',
/* time_stamp */ '2026-10-06T18:17:51+01:00',
/* author */ (''),
/* organization */ (''),
/* preprocessor_version */ 'ST-DEVELOPER v20.2',
/* originating_system */ 'Autodesk Translation Framework v15.15.0.0',
/* authorisation */ '');

FILE_SCHEMA (('AUTOMOTIVE_DESIGN { 1 0 10303 214 3 1 1 }'));
ENDSEC;

DATA;
#10=MECHANICAL_DESIGN_GEOMETRIC_PRESENTATION_REPRESENTATION('',(#13),#910);
#11=SHAPE_REPRESENTATION_RELATIONSHIP('SRR','None',#917,#12);
#12=ADVANCED_BREP_SHAPE_REPRESENTATION('',(#14),#909);
#13=STYLED_ITEM('',(#926),#14);
#14=MANIFOLD_SOLID_BREP('Body1',#538);
#15=CYLINDRICAL_SURFACE('',#578,5.);
#16=CYLINDRICAL_SURFACE('',#581,1.5);
#17=CYLINDRICAL_SURFACE('',#589,5.);
#18=CYLINDRICAL_SURFACE('',#590,5.00000000000002);
#19=CYLINDRICAL_SURFACE('',#592,5.);
#20=CYLINDRICAL_SURFACE('',#594,5.);
#21=CYLINDRICAL_SURFACE('',#595,7.00000000000003);
#22=CYLINDRICAL_SURFACE('',#596,7.00000000000003);
#23=CYLINDRICAL_SURFACE('',#597,7.00000000000003);
#24=CYLINDRICAL_SURFACE('',#599,7.00000000000003);
#25=FACE_BOUND('',#83,.T.);
#26=FACE_BOUND('',#93,.T.);
#27=FACE_BOUND('',#94,.T.);
#28=ELLIPSE('',#567,7.02278226069439,7.00000000000003);
#29=ELLIPSE('',#568,7.02278226069439,7.00000000000003);
#30=ELLIPSE('',#569,7.02278226069439,7.00000000000003);
#31=ELLIPSE('',#570,7.02278226069439,7.00000000000003);
#32=ELLIPSE('',#571,1.50488191300593,1.5);
#33=CIRCLE('',#556,5.00000000000002);
#34=CIRCLE('',#557,5.);
#35=CIRCLE('',#558,5.);
#36=CIRCLE('',#559,5.);
#37=CIRCLE('',#560,7.00000000000003);
#38=CIRCLE('',#561,7.00000000000003);
#39=CIRCLE('',#562,7.00000000000003);
#40=CIRCLE('',#563,7.00000000000003);
#41=CIRCLE('',#575,5.);
#42=CIRCLE('',#579,5.);
#43=CIRCLE('',#582,1.5);
#44=CIRCLE('',#584,5.);
#45=CIRCLE('',#585,5.00000000000002);
#46=CIRCLE('',#586,5.);
#47=CIRCLE('',#587,5.);
#48=FACE_OUTER_BOUND('',#76,.T.);
#49=FACE_OUTER_BOUND('',#77,.T.);
#50=FACE_OUTER_BOUND('',#78,.T.);
#51=FACE_OUTER_BOUND('',#79,.T.);
#52=FACE_OUTER_BOUND('',#80,.T.);
#53=FACE_OUTER_BOUND('',#81,.T.);
#54=FACE_OUTER_BOUND('',#82,.T.);
#55=FACE_OUTER_BOUND('',#84,.T.);
#56=FACE_OUTER_BOUND('',#85,.T.);
#57=FACE_OUTER_BOUND('',#86,.T.);
#58=FACE_OUTER_BOUND('',#87,.T.);
#59=FACE_OUTER_BOUND('',#88,.T.);
#60=FACE_OUTER_BOUND('',#89,.T.);
#61=FACE_OUTER_BOUND('',#90,.T.);
#62=FACE_OUTER_BOUND('',#91,.T.);
#63=FACE_OUTER_BOUND('',#92,.T.);
#64=FACE_OUTER_BOUND('',#95,.T.);
#65=FACE_OUTER_BOUND('',#96,.T.);
#66=FACE_OUTER_BOUND('',#97,.T.);
#67=FACE_OUTER_BOUND('',#98,.T.);
#68=FACE_OUTER_BOUND('',#99,.T.);
#69=FACE_OUTER_BOUND('',#100,.T.);
#70=FACE_OUTER_BOUND('',#101,.T.);
#71=FACE_OUTER_BOUND('',#102,.T.);
#72=FACE_OUTER_BOUND('',#103,.T.);
#73=FACE_OUTER_BOUND('',#104,.T.);
#74=FACE_OUTER_BOUND('',#105,.T.);
#75=FACE_OUTER_BOUND('',#106,.T.);
#76=EDGE_LOOP('',(#342,#343,#344,#345));
#77=EDGE_LOOP('',(#346,#347,#348,#349));
#78=EDGE_LOOP('',(#350,#351,#352,#353));
#79=EDGE_LOOP('',(#354,#355,#356,#357,#358,#359,#360,#361,#362,#363,#364,
#365,#366,#367,#368,#369,#370,#371,#372,#373));
#80=EDGE_LOOP('',(#374,#375,#376,#377));
#81=EDGE_LOOP('',(#378,#379,#380,#381,#382,#383,#384,#385));
#82=EDGE_LOOP('',(#386,#387,#388,#389,#390,#391,#392,#393));
#83=EDGE_LOOP('',(#394));
#84=EDGE_LOOP('',(#395,#396,#397,#398));
#85=EDGE_LOOP('',(#399,#400,#401,#402));
#86=EDGE_LOOP('',(#403,#404,#405,#406));
#87=EDGE_LOOP('',(#407,#408,#409,#410));
#88=EDGE_LOOP('',(#411,#412,#413,#414));
#89=EDGE_LOOP('',(#415,#416,#417,#418));
#90=EDGE_LOOP('',(#419,#420,#421,#422));
#91=EDGE_LOOP('',(#423,#424,#425,#426));
#92=EDGE_LOOP('',(#427,#428,#429,#430,#431,#432,#433,#434,#435,#436,#437,
#438));
#93=EDGE_LOOP('',(#439));
#94=EDGE_LOOP('',(#440,#441,#442,#443));
#95=EDGE_LOOP('',(#444,#445,#446,#447));
#96=EDGE_LOOP('',(#448,#449,#450,#451));
#97=EDGE_LOOP('',(#452,#453,#454,#455));
#98=EDGE_LOOP('',(#456,#457,#458,#459));
#99=EDGE_LOOP('',(#460,#461,#462,#463));
#100=EDGE_LOOP('',(#464,#465,#466,#467));
#101=EDGE_LOOP('',(#468,#469,#470,#471));
#102=EDGE_LOOP('',(#472,#473,#474,#475));
#103=EDGE_LOOP('',(#476,#477,#478,#479));
#104=EDGE_LOOP('',(#480,#481,#482,#483));
#105=EDGE_LOOP('',(#484,#485,#486,#487));
#106=EDGE_LOOP('',(#488,#489,#490,#491));
#107=LINE('',#757,#162);
#108=LINE('',#759,#163);
#109=LINE('',#761,#164);
#110=LINE('',#762,#165);
#111=LINE('',#765,#166);
#112=LINE('',#767,#167);
#113=LINE('',#768,#168);
#114=LINE('',#772,#169);
#115=LINE('',#774,#170);
#116=LINE('',#776,#171);
#117=LINE('',#777,#172);
#118=LINE('',#780,#173);
#119=LINE('',#784,#174);
#120=LINE('',#788,#175);
#121=LINE('',#792,#176);
#122=LINE('',#795,#177);
#123=LINE('',#799,#178);
#124=LINE('',#803,#179);
#125=LINE('',#807,#180);
#126=LINE('',#810,#181);
#127=LINE('',#813,#182);
#128=LINE('',#814,#183);
#129=LINE('',#817,#184);
#130=LINE('',#819,#185);
#131=LINE('',#820,#186);
#132=LINE('',#821,#187);
#133=LINE('',#826,#188);
#134=LINE('',#830,#189);
#135=LINE('',#834,#190);
#136=LINE('',#839,#191);
#137=LINE('',#840,#192);
#138=LINE('',#842,#193);
#139=LINE('',#843,#194);
#140=LINE('',#847,#195);
#141=LINE('',#849,#196);
#142=LINE('',#852,#197);
#143=LINE('',#856,#198);
#144=LINE('',#857,#199);
#145=LINE('',#858,#200);
#146=LINE('',#861,#201);
#147=LINE('',#862,#202);
#148=LINE('',#866,#203);
#149=LINE('',#868,#204);
#150=LINE('',#871,#205);
#151=LINE('',#878,#206);
#152=LINE('',#883,#207);
#153=LINE('',#886,#208);
#154=LINE('',#888,#209);
#155=LINE('',#889,#210);
#156=LINE('',#892,#211);
#157=LINE('',#894,#212);
#158=LINE('',#896,#213);
#159=LINE('',#898,#214);
#160=LINE('',#903,#215);
#161=LINE('',#905,#216);
#162=VECTOR('',#604,10.);
#163=VECTOR('',#605,10.);
#164=VECTOR('',#606,10.);
#165=VECTOR('',#607,10.);
#166=VECTOR('',#610,10.);
#167=VECTOR('',#611,10.);
#168=VECTOR('',#612,10.);
#169=VECTOR('',#615,10.);
#170=VECTOR('',#616,10.);
#171=VECTOR('',#617,10.);
#172=VECTOR('',#618,10.);
#173=VECTOR('',#621,10.);
#174=VECTOR('',#624,10.);
#175=VECTOR('',#627,10.);
#176=VECTOR('',#630,10.);
#177=VECTOR('',#633,10.);
#178=VECTOR('',#636,10.);
#179=VECTOR('',#639,10.);
#180=VECTOR('',#642,10.);
#181=VECTOR('',#645,10.);
#182=VECTOR('',#648,10.);
#183=VECTOR('',#649,10.);
#184=VECTOR('',#652,10.);
#185=VECTOR('',#653,10.);
#186=VECTOR('',#654,10.);
#187=VECTOR('',#655,10.);
#188=VECTOR('',#660,10.);
#189=VECTOR('',#663,10.);
#190=VECTOR('',#666,10.);
#191=VECTOR('',#673,10.);
#192=VECTOR('',#674,10.);
#193=VECTOR('',#677,10.);
#194=VECTOR('',#678,10.);
#195=VECTOR('',#681,10.);
#196=VECTOR('',#682,10.);
#197=VECTOR('',#685,10.);
#198=VECTOR('',#688,10.);
#199=VECTOR('',#689,10.);
#200=VECTOR('',#690,10.);
#201=VECTOR('',#693,10.);
#202=VECTOR('',#694,10.);
#203=VECTOR('',#699,10.);
#204=VECTOR('',#702,10.);
#205=VECTOR('',#705,1.5);
#206=VECTOR('',#712,10.);
#207=VECTOR('',#717,10.);
#208=VECTOR('',#720,10.);
#209=VECTOR('',#723,10.);
#210=VECTOR('',#724,10.);
#211=VECTOR('',#729,10.);
#212=VECTOR('',#732,10.);
#213=VECTOR('',#735,10.);
#214=VECTOR('',#738,10.);
#215=VECTOR('',#747,10.);
#216=VECTOR('',#750,10.);
#217=VERTEX_POINT('',#755);
#218=VERTEX_POINT('',#756);
#219=VERTEX_POINT('',#758);
#220=VERTEX_POINT('',#760);
#221=VERTEX_POINT('',#764);
#222=VERTEX_POINT('',#766);
#223=VERTEX_POINT('',#770);
#224=VERTEX_POINT('',#771);
#225=VERTEX_POINT('',#773);
#226=VERTEX_POINT('',#775);
#227=VERTEX_POINT('',#779);
#228=VERTEX_POINT('',#781);
#229=VERTEX_POINT('',#783);
#230=VERTEX_POINT('',#785);
#231=VERTEX_POINT('',#787);
#232=VERTEX_POINT('',#789);
#233=VERTEX_POINT('',#791);
#234=VERTEX_POINT('',#794);
#235=VERTEX_POINT('',#796);
#236=VERTEX_POINT('',#798);
#237=VERTEX_POINT('',#800);
#238=VERTEX_POINT('',#802);
#239=VERTEX_POINT('',#804);
#240=VERTEX_POINT('',#806);
#241=VERTEX_POINT('',#808);
#242=VERTEX_POINT('',#812);
#243=VERTEX_POINT('',#816);
#244=VERTEX_POINT('',#818);
#245=VERTEX_POINT('',#823);
#246=VERTEX_POINT('',#825);
#247=VERTEX_POINT('',#827);
#248=VERTEX_POINT('',#829);
#249=VERTEX_POINT('',#831);
#250=VERTEX_POINT('',#833);
#251=VERTEX_POINT('',#836);
#252=VERTEX_POINT('',#845);
#253=VERTEX_POINT('',#846);
#254=VERTEX_POINT('',#848);
#255=VERTEX_POINT('',#850);
#256=VERTEX_POINT('',#854);
#257=VERTEX_POINT('',#855);
#258=VERTEX_POINT('',#860);
#259=VERTEX_POINT('',#864);
#260=VERTEX_POINT('',#870);
#261=VERTEX_POINT('',#874);
#262=VERTEX_POINT('',#875);
#263=VERTEX_POINT('',#877);
#264=VERTEX_POINT('',#880);
#265=VERTEX_POINT('',#882);
#266=VERTEX_POINT('',#884);
#267=EDGE_CURVE('',#217,#218,#107,.T.);
#268=EDGE_CURVE('',#219,#218,#108,.T.);
#269=EDGE_CURVE('',#220,#219,#109,.T.);
#270=EDGE_CURVE('',#220,#217,#110,.T.);
#271=EDGE_CURVE('',#218,#221,#111,.T.);
#272=EDGE_CURVE('',#217,#222,#112,.T.);
#273=EDGE_CURVE('',#221,#222,#113,.T.);
#274=EDGE_CURVE('',#223,#224,#114,.T.);
#275=EDGE_CURVE('',#225,#223,#115,.T.);
#276=EDGE_CURVE('',#225,#226,#116,.T.);
#277=EDGE_CURVE('',#224,#226,#117,.T.);
#278=EDGE_CURVE('',#224,#227,#118,.T.);
#279=EDGE_CURVE('',#227,#228,#33,.T.);
#280=EDGE_CURVE('',#228,#229,#119,.T.);
#281=EDGE_CURVE('',#229,#230,#34,.T.);
#282=EDGE_CURVE('',#230,#231,#120,.T.);
#283=EDGE_CURVE('',#231,#232,#35,.T.);
#284=EDGE_CURVE('',#232,#233,#121,.T.);
#285=EDGE_CURVE('',#233,#219,#36,.T.);
#286=EDGE_CURVE('',#221,#234,#122,.T.);
#287=EDGE_CURVE('',#234,#235,#37,.T.);
#288=EDGE_CURVE('',#235,#236,#123,.T.);
#289=EDGE_CURVE('',#236,#237,#38,.T.);
#290=EDGE_CURVE('',#237,#238,#124,.T.);
#291=EDGE_CURVE('',#238,#239,#39,.T.);
#292=EDGE_CURVE('',#239,#240,#125,.T.);
#293=EDGE_CURVE('',#240,#241,#40,.T.);
#294=EDGE_CURVE('',#241,#223,#126,.T.);
#295=EDGE_CURVE('',#226,#242,#127,.T.);
#296=EDGE_CURVE('',#242,#227,#128,.T.);
#297=EDGE_CURVE('',#243,#241,#129,.T.);
#298=EDGE_CURVE('',#243,#244,#130,.T.);
#299=EDGE_CURVE('',#244,#234,#131,.T.);
#300=EDGE_CURVE('',#222,#225,#132,.T.);
#301=EDGE_CURVE('',#243,#245,#28,.T.);
#302=EDGE_CURVE('',#245,#246,#133,.T.);
#303=EDGE_CURVE('',#246,#247,#29,.T.);
#304=EDGE_CURVE('',#248,#247,#134,.T.);
#305=EDGE_CURVE('',#248,#249,#30,.T.);
#306=EDGE_CURVE('',#249,#250,#135,.T.);
#307=EDGE_CURVE('',#250,#244,#31,.T.);
#308=EDGE_CURVE('',#251,#251,#32,.T.);
#309=EDGE_CURVE('',#238,#247,#136,.T.);
#310=EDGE_CURVE('',#248,#237,#137,.T.);
#311=EDGE_CURVE('',#249,#236,#138,.T.);
#312=EDGE_CURVE('',#250,#235,#139,.T.);
#313=EDGE_CURVE('',#252,#253,#140,.T.);
#314=EDGE_CURVE('',#253,#254,#141,.T.);
#315=EDGE_CURVE('',#254,#255,#41,.T.);
#316=EDGE_CURVE('',#255,#252,#142,.T.);
#317=EDGE_CURVE('',#256,#257,#143,.T.);
#318=EDGE_CURVE('',#256,#253,#144,.T.);
#319=EDGE_CURVE('',#257,#252,#145,.T.);
#320=EDGE_CURVE('',#257,#258,#146,.T.);
#321=EDGE_CURVE('',#258,#255,#147,.T.);
#322=EDGE_CURVE('',#258,#259,#42,.T.);
#323=EDGE_CURVE('',#259,#254,#148,.T.);
#324=EDGE_CURVE('',#259,#256,#149,.T.);
#325=EDGE_CURVE('',#251,#260,#150,.T.);
#326=EDGE_CURVE('',#260,#260,#43,.T.);
#327=EDGE_CURVE('',#261,#262,#44,.T.);
#328=EDGE_CURVE('',#263,#261,#151,.T.);
#329=EDGE_CURVE('',#242,#263,#45,.T.);
#330=EDGE_CURVE('',#264,#220,#46,.T.);
#331=EDGE_CURVE('',#265,#264,#152,.T.);
#332=EDGE_CURVE('',#266,#265,#47,.T.);
#333=EDGE_CURVE('',#262,#266,#153,.T.);
#334=EDGE_CURVE('',#264,#233,#154,.T.);
#335=EDGE_CURVE('',#265,#232,#155,.T.);
#336=EDGE_CURVE('',#263,#228,#156,.T.);
#337=EDGE_CURVE('',#229,#261,#157,.T.);
#338=EDGE_CURVE('',#266,#231,#158,.T.);
#339=EDGE_CURVE('',#262,#230,#159,.T.);
#340=EDGE_CURVE('',#245,#240,#160,.T.);
#341=EDGE_CURVE('',#246,#239,#161,.T.);
#342=ORIENTED_EDGE('',*,*,#267,.T.);
#343=ORIENTED_EDGE('',*,*,#268,.F.);
#344=ORIENTED_EDGE('',*,*,#269,.F.);
#345=ORIENTED_EDGE('',*,*,#270,.T.);
#346=ORIENTED_EDGE('',*,*,#271,.F.);
#347=ORIENTED_EDGE('',*,*,#267,.F.);
#348=ORIENTED_EDGE('',*,*,#272,.T.);
#349=ORIENTED_EDGE('',*,*,#273,.F.);
#350=ORIENTED_EDGE('',*,*,#274,.F.);
#351=ORIENTED_EDGE('',*,*,#275,.F.);
#352=ORIENTED_EDGE('',*,*,#276,.T.);
#353=ORIENTED_EDGE('',*,*,#277,.F.);
#354=ORIENTED_EDGE('',*,*,#274,.T.);
#355=ORIENTED_EDGE('',*,*,#278,.T.);
#356=ORIENTED_EDGE('',*,*,#279,.T.);
#357=ORIENTED_EDGE('',*,*,#280,.T.);
#358=ORIENTED_EDGE('',*,*,#281,.T.);
#359=ORIENTED_EDGE('',*,*,#282,.T.);
#360=ORIENTED_EDGE('',*,*,#283,.T.);
#361=ORIENTED_EDGE('',*,*,#284,.T.);
#362=ORIENTED_EDGE('',*,*,#285,.T.);
#363=ORIENTED_EDGE('',*,*,#268,.T.);
#364=ORIENTED_EDGE('',*,*,#271,.T.);
#365=ORIENTED_EDGE('',*,*,#286,.T.);
#366=ORIENTED_EDGE('',*,*,#287,.T.);
#367=ORIENTED_EDGE('',*,*,#288,.T.);
#368=ORIENTED_EDGE('',*,*,#289,.T.);
#369=ORIENTED_EDGE('',*,*,#290,.T.);
#370=ORIENTED_EDGE('',*,*,#291,.T.);
#371=ORIENTED_EDGE('',*,*,#292,.T.);
#372=ORIENTED_EDGE('',*,*,#293,.T.);
#373=ORIENTED_EDGE('',*,*,#294,.T.);
#374=ORIENTED_EDGE('',*,*,#277,.T.);
#375=ORIENTED_EDGE('',*,*,#295,.T.);
#376=ORIENTED_EDGE('',*,*,#296,.T.);
#377=ORIENTED_EDGE('',*,*,#278,.F.);
#378=ORIENTED_EDGE('',*,*,#275,.T.);
#379=ORIENTED_EDGE('',*,*,#294,.F.);
#380=ORIENTED_EDGE('',*,*,#297,.F.);
#381=ORIENTED_EDGE('',*,*,#298,.T.);
#382=ORIENTED_EDGE('',*,*,#299,.T.);
#383=ORIENTED_EDGE('',*,*,#286,.F.);
#384=ORIENTED_EDGE('',*,*,#273,.T.);
#385=ORIENTED_EDGE('',*,*,#300,.T.);
#386=ORIENTED_EDGE('',*,*,#301,.T.);
#387=ORIENTED_EDGE('',*,*,#302,.T.);
#388=ORIENTED_EDGE('',*,*,#303,.T.);
#389=ORIENTED_EDGE('',*,*,#304,.F.);
#390=ORIENTED_EDGE('',*,*,#305,.T.);
#391=ORIENTED_EDGE('',*,*,#306,.T.);
#392=ORIENTED_EDGE('',*,*,#307,.T.);
#393=ORIENTED_EDGE('',*,*,#298,.F.);
#394=ORIENTED_EDGE('',*,*,#308,.T.);
#395=ORIENTED_EDGE('',*,*,#309,.F.);
#396=ORIENTED_EDGE('',*,*,#290,.F.);
#397=ORIENTED_EDGE('',*,*,#310,.F.);
#398=ORIENTED_EDGE('',*,*,#304,.T.);
#399=ORIENTED_EDGE('',*,*,#311,.T.);
#400=ORIENTED_EDGE('',*,*,#288,.F.);
#401=ORIENTED_EDGE('',*,*,#312,.F.);
#402=ORIENTED_EDGE('',*,*,#306,.F.);
#403=ORIENTED_EDGE('',*,*,#313,.T.);
#404=ORIENTED_EDGE('',*,*,#314,.T.);
#405=ORIENTED_EDGE('',*,*,#315,.T.);
#406=ORIENTED_EDGE('',*,*,#316,.T.);
#407=ORIENTED_EDGE('',*,*,#317,.F.);
#408=ORIENTED_EDGE('',*,*,#318,.T.);
#409=ORIENTED_EDGE('',*,*,#313,.F.);
#410=ORIENTED_EDGE('',*,*,#319,.F.);
#411=ORIENTED_EDGE('',*,*,#320,.F.);
#412=ORIENTED_EDGE('',*,*,#319,.T.);
#413=ORIENTED_EDGE('',*,*,#316,.F.);
#414=ORIENTED_EDGE('',*,*,#321,.F.);
#415=ORIENTED_EDGE('',*,*,#322,.F.);
#416=ORIENTED_EDGE('',*,*,#321,.T.);
#417=ORIENTED_EDGE('',*,*,#315,.F.);
#418=ORIENTED_EDGE('',*,*,#323,.F.);
#419=ORIENTED_EDGE('',*,*,#324,.F.);
#420=ORIENTED_EDGE('',*,*,#323,.T.);
#421=ORIENTED_EDGE('',*,*,#314,.F.);
#422=ORIENTED_EDGE('',*,*,#318,.F.);
#423=ORIENTED_EDGE('',*,*,#308,.F.);
#424=ORIENTED_EDGE('',*,*,#325,.T.);
#425=ORIENTED_EDGE('',*,*,#326,.F.);
#426=ORIENTED_EDGE('',*,*,#325,.F.);
#427=ORIENTED_EDGE('',*,*,#327,.F.);
#428=ORIENTED_EDGE('',*,*,#328,.F.);
#429=ORIENTED_EDGE('',*,*,#329,.F.);
#430=ORIENTED_EDGE('',*,*,#295,.F.);
#431=ORIENTED_EDGE('',*,*,#276,.F.);
#432=ORIENTED_EDGE('',*,*,#300,.F.);
#433=ORIENTED_EDGE('',*,*,#272,.F.);
#434=ORIENTED_EDGE('',*,*,#270,.F.);
#435=ORIENTED_EDGE('',*,*,#330,.F.);
#436=ORIENTED_EDGE('',*,*,#331,.F.);
#437=ORIENTED_EDGE('',*,*,#332,.F.);
#438=ORIENTED_EDGE('',*,*,#333,.F.);
#439=ORIENTED_EDGE('',*,*,#326,.T.);
#440=ORIENTED_EDGE('',*,*,#324,.T.);
#441=ORIENTED_EDGE('',*,*,#317,.T.);
#442=ORIENTED_EDGE('',*,*,#320,.T.);
#443=ORIENTED_EDGE('',*,*,#322,.T.);
#444=ORIENTED_EDGE('',*,*,#331,.T.);
#445=ORIENTED_EDGE('',*,*,#334,.T.);
#446=ORIENTED_EDGE('',*,*,#284,.F.);
#447=ORIENTED_EDGE('',*,*,#335,.F.);
#448=ORIENTED_EDGE('',*,*,#330,.T.);
#449=ORIENTED_EDGE('',*,*,#269,.T.);
#450=ORIENTED_EDGE('',*,*,#285,.F.);
#451=ORIENTED_EDGE('',*,*,#334,.F.);
#452=ORIENTED_EDGE('',*,*,#329,.T.);
#453=ORIENTED_EDGE('',*,*,#336,.T.);
#454=ORIENTED_EDGE('',*,*,#279,.F.);
#455=ORIENTED_EDGE('',*,*,#296,.F.);
#456=ORIENTED_EDGE('',*,*,#328,.T.);
#457=ORIENTED_EDGE('',*,*,#337,.F.);
#458=ORIENTED_EDGE('',*,*,#280,.F.);
#459=ORIENTED_EDGE('',*,*,#336,.F.);
#460=ORIENTED_EDGE('',*,*,#332,.T.);
#461=ORIENTED_EDGE('',*,*,#335,.T.);
#462=ORIENTED_EDGE('',*,*,#283,.F.);
#463=ORIENTED_EDGE('',*,*,#338,.F.);
#464=ORIENTED_EDGE('',*,*,#333,.T.);
#465=ORIENTED_EDGE('',*,*,#338,.T.);
#466=ORIENTED_EDGE('',*,*,#282,.F.);
#467=ORIENTED_EDGE('',*,*,#339,.F.);
#468=ORIENTED_EDGE('',*,*,#327,.T.);
#469=ORIENTED_EDGE('',*,*,#339,.T.);
#470=ORIENTED_EDGE('',*,*,#281,.F.);
#471=ORIENTED_EDGE('',*,*,#337,.T.);
#472=ORIENTED_EDGE('',*,*,#310,.T.);
#473=ORIENTED_EDGE('',*,*,#289,.F.);
#474=ORIENTED_EDGE('',*,*,#311,.F.);
#475=ORIENTED_EDGE('',*,*,#305,.F.);
#476=ORIENTED_EDGE('',*,*,#312,.T.);
#477=ORIENTED_EDGE('',*,*,#287,.F.);
#478=ORIENTED_EDGE('',*,*,#299,.F.);
#479=ORIENTED_EDGE('',*,*,#307,.F.);
#480=ORIENTED_EDGE('',*,*,#297,.T.);
#481=ORIENTED_EDGE('',*,*,#293,.F.);
#482=ORIENTED_EDGE('',*,*,#340,.F.);
#483=ORIENTED_EDGE('',*,*,#301,.F.);
#484=ORIENTED_EDGE('',*,*,#340,.T.);
#485=ORIENTED_EDGE('',*,*,#292,.F.);
#486=ORIENTED_EDGE('',*,*,#341,.F.);
#487=ORIENTED_EDGE('',*,*,#302,.F.);
#488=ORIENTED_EDGE('',*,*,#341,.T.);
#489=ORIENTED_EDGE('',*,*,#291,.F.);
#490=ORIENTED_EDGE('',*,*,#309,.T.);
#491=ORIENTED_EDGE('',*,*,#303,.F.);
#492=PLANE('',#552);
#493=PLANE('',#553);
#494=PLANE('',#554);
#495=PLANE('',#555);
#496=PLANE('',#564);
#497=PLANE('',#565);
#498=PLANE('',#566);
#499=PLANE('',#572);
#500=PLANE('',#573);
#501=PLANE('',#574);
#502=PLANE('',#576);
#503=PLANE('',#577);
#504=PLANE('',#580);
#505=PLANE('',#583);
#506=PLANE('',#588);
#507=PLANE('',#591);
#508=PLANE('',#593);
#509=PLANE('',#598);
#510=ADVANCED_FACE('',(#48),#492,.T.);
#511=ADVANCED_FACE('',(#49),#493,.F.);
#512=ADVANCED_FACE('',(#50),#494,.F.);
#513=ADVANCED_FACE('',(#51),#495,.T.);
#514=ADVANCED_FACE('',(#52),#496,.T.);
#515=ADVANCED_FACE('',(#53),#497,.T.);
#516=ADVANCED_FACE('',(#54,#25),#498,.T.);
#517=ADVANCED_FACE('',(#55),#499,.T.);
#518=ADVANCED_FACE('',(#56),#500,.T.);
#519=ADVANCED_FACE('',(#57),#501,.T.);
#520=ADVANCED_FACE('',(#58),#502,.T.);
#521=ADVANCED_FACE('',(#59),#503,.T.);
#522=ADVANCED_FACE('',(#60),#15,.T.);
#523=ADVANCED_FACE('',(#61),#504,.T.);
#524=ADVANCED_FACE('',(#62),#16,.F.);
#525=ADVANCED_FACE('',(#63,#26,#27),#505,.T.);
#526=ADVANCED_FACE('',(#64),#506,.T.);
#527=ADVANCED_FACE('',(#65),#17,.F.);
#528=ADVANCED_FACE('',(#66),#18,.F.);
#529=ADVANCED_FACE('',(#67),#507,.T.);
#530=ADVANCED_FACE('',(#68),#19,.F.);
#531=ADVANCED_FACE('',(#69),#508,.T.);
#532=ADVANCED_FACE('',(#70),#20,.F.);
#533=ADVANCED_FACE('',(#71),#21,.T.);
#534=ADVANCED_FACE('',(#72),#22,.T.);
#535=ADVANCED_FACE('',(#73),#23,.T.);
#536=ADVANCED_FACE('',(#74),#509,.T.);
#537=ADVANCED_FACE('',(#75),#24,.T.);
#538=CLOSED_SHELL('',(#510,#511,#512,#513,#514,#515,#516,#517,#518,#519,
#520,#521,#522,#523,#524,#525,#526,#527,#528,#529,#530,#531,#532,#533,#534,
#535,#536,#537));
#539=DERIVED_UNIT_ELEMENT(#541,1.);
#540=DERIVED_UNIT_ELEMENT(#912,-3.);
#541=(
MASS_UNIT()
NAMED_UNIT(*)
SI_UNIT(.KILO.,.GRAM.)
);
#542=DERIVED_UNIT((#539,#540));
#543=MEASURE_REPRESENTATION_ITEM('density measure',
POSITIVE_RATIO_MEASURE(7850.),#542);
#544=PROPERTY_DEFINITION_REPRESENTATION(#549,#546);
#545=PROPERTY_DEFINITION_REPRESENTATION(#550,#547);
#546=REPRESENTATION('material name',(#548),#909);
#547=REPRESENTATION('density',(#543),#909);
#548=DESCRIPTIVE_REPRESENTATION_ITEM('Steel','Steel');
#549=PROPERTY_DEFINITION('material property','material name',#919);
#550=PROPERTY_DEFINITION('material property','density of part',#919);
#551=AXIS2_PLACEMENT_3D('',#753,#600,#601);
#552=AXIS2_PLACEMENT_3D('',#754,#602,#603);
#553=AXIS2_PLACEMENT_3D('',#763,#608,#609);
#554=AXIS2_PLACEMENT_3D('',#769,#613,#614);
#555=AXIS2_PLACEMENT_3D('',#778,#619,#620);
#556=AXIS2_PLACEMENT_3D('',#782,#622,#623);
#557=AXIS2_PLACEMENT_3D('',#786,#625,#626);
#558=AXIS2_PLACEMENT_3D('',#790,#628,#629);
#559=AXIS2_PLACEMENT_3D('',#793,#631,#632);
#560=AXIS2_PLACEMENT_3D('',#797,#634,#635);
#561=AXIS2_PLACEMENT_3D('',#801,#637,#638);
#562=AXIS2_PLACEMENT_3D('',#805,#640,#641);
#563=AXIS2_PLACEMENT_3D('',#809,#643,#644);
#564=AXIS2_PLACEMENT_3D('',#811,#646,#647);
#565=AXIS2_PLACEMENT_3D('',#815,#650,#651);
#566=AXIS2_PLACEMENT_3D('',#822,#656,#657);
#567=AXIS2_PLACEMENT_3D('',#824,#658,#659);
#568=AXIS2_PLACEMENT_3D('',#828,#661,#662);
#569=AXIS2_PLACEMENT_3D('',#832,#664,#665);
#570=AXIS2_PLACEMENT_3D('',#835,#667,#668);
#571=AXIS2_PLACEMENT_3D('',#837,#669,#670);
#572=AXIS2_PLACEMENT_3D('',#838,#671,#672);
#573=AXIS2_PLACEMENT_3D('',#841,#675,#676);
#574=AXIS2_PLACEMENT_3D('',#844,#679,#680);
#575=AXIS2_PLACEMENT_3D('',#851,#683,#684);
#576=AXIS2_PLACEMENT_3D('',#853,#686,#687);
#577=AXIS2_PLACEMENT_3D('',#859,#691,#692);
#578=AXIS2_PLACEMENT_3D('',#863,#695,#696);
#579=AXIS2_PLACEMENT_3D('',#865,#697,#698);
#580=AXIS2_PLACEMENT_3D('',#867,#700,#701);
#581=AXIS2_PLACEMENT_3D('',#869,#703,#704);
#582=AXIS2_PLACEMENT_3D('',#872,#706,#707);
#583=AXIS2_PLACEMENT_3D('',#873,#708,#709);
#584=AXIS2_PLACEMENT_3D('',#876,#710,#711);
#585=AXIS2_PLACEMENT_3D('',#879,#713,#714);
#586=AXIS2_PLACEMENT_3D('',#881,#715,#716);
#587=AXIS2_PLACEMENT_3D('',#885,#718,#719);
#588=AXIS2_PLACEMENT_3D('',#887,#721,#722);
#589=AXIS2_PLACEMENT_3D('',#890,#725,#726);
#590=AXIS2_PLACEMENT_3D('',#891,#727,#728);
#591=AXIS2_PLACEMENT_3D('',#893,#730,#731);
#592=AXIS2_PLACEMENT_3D('',#895,#733,#734);
#593=AXIS2_PLACEMENT_3D('',#897,#736,#737);
#594=AXIS2_PLACEMENT_3D('',#899,#739,#740);
#595=AXIS2_PLACEMENT_3D('',#900,#741,#742);
#596=AXIS2_PLACEMENT_3D('',#901,#743,#744);
#597=AXIS2_PLACEMENT_3D('',#902,#745,#746);
#598=AXIS2_PLACEMENT_3D('',#904,#748,#749);
#599=AXIS2_PLACEMENT_3D('',#906,#751,#752);
#600=DIRECTION('axis',(0.,0.,1.));
#601=DIRECTION('refdir',(1.,0.,0.));
#602=DIRECTION('center_axis',(-0.999961923064171,0.,0.00872653549837393));
#603=DIRECTION('ref_axis',(0.00872653549837393,0.,0.999961923064171));
#604=DIRECTION('',(0.,1.,0.));
#605=DIRECTION('',(0.00872653549837393,0.,0.999961923064171));
#606=DIRECTION('',(0.,1.,0.));
#607=DIRECTION('',(0.00872653549837393,0.,0.999961923064171));
#608=DIRECTION('center_axis',(-0.776744765711359,0.,-0.629815503889834));
#609=DIRECTION('ref_axis',(0.629815503889834,0.,-0.776744765711359));
#610=DIRECTION('',(0.629815503889834,0.,-0.776744765711359));
#611=DIRECTION('',(0.629815503889834,0.,-0.776744765711359));
#612=DIRECTION('',(0.,-1.,0.));
#613=DIRECTION('center_axis',(-0.792271701213675,0.,0.610168461538279));
#614=DIRECTION('ref_axis',(-0.610168461538279,0.,-0.792271701213675));
#615=DIRECTION('',(-0.610168461538279,0.,-0.792271701213675));
#616=DIRECTION('',(0.,1.,0.));
#617=DIRECTION('',(-0.610168461538279,0.,-0.792271701213675));
#618=DIRECTION('',(0.,-1.,0.));
#619=DIRECTION('center_axis',(0.,1.,0.));
#620=DIRECTION('ref_axis',(0.999961923064171,0.,-0.00872653549837393));
#621=DIRECTION('',(0.00872653549837393,0.,0.999961923064171));
#622=DIRECTION('center_axis',(0.,-1.,0.));
#623=DIRECTION('ref_axis',(0.00872653549837393,0.,0.999961923064171));
#624=DIRECTION('',(-0.999961923064171,0.,0.00872653549837393));
#625=DIRECTION('center_axis',(0.,-1.,0.));
#626=DIRECTION('ref_axis',(-0.999961923064171,0.,0.00872653549837393));
#627=DIRECTION('',(-0.00872653549837393,0.,-0.999961923064171));
#628=DIRECTION('center_axis',(0.,-1.,0.));
#629=DIRECTION('ref_axis',(-0.00872653549837393,0.,-0.999961923064171));
#630=DIRECTION('',(0.999961923064171,0.,-0.00872653549837393));
#631=DIRECTION('center_axis',(0.,-1.,0.));
#632=DIRECTION('ref_axis',(0.999961923064171,0.,-0.00872653549837416));
#633=DIRECTION('',(-0.00872653549837393,0.,-0.999961923064171));
#634=DIRECTION('center_axis',(0.,1.,0.));
#635=DIRECTION('ref_axis',(0.999961923064171,0.,-0.00872653549837393));
#636=DIRECTION('',(-0.999961923064171,0.,0.00872653549837398));
#637=DIRECTION('center_axis',(0.,1.,0.));
#638=DIRECTION('ref_axis',(-0.00872653549837393,0.,-0.999961923064171));
#639=DIRECTION('',(0.00872653549837393,0.,0.999961923064171));
#640=DIRECTION('center_axis',(0.,1.,0.));
#641=DIRECTION('ref_axis',(-0.999961923064171,0.,0.00872653549837393));
#642=DIRECTION('',(0.999961923064171,0.,-0.00872653549837393));
#643=DIRECTION('center_axis',(0.,1.,0.));
#644=DIRECTION('ref_axis',(0.00872653549837393,0.,0.999961923064171));
#645=DIRECTION('',(-0.00872653549837393,0.,-0.999961923064171));
#646=DIRECTION('center_axis',(-0.999961923064171,0.,0.00872653549837393));
#647=DIRECTION('ref_axis',(0.00872653549837393,0.,0.999961923064171));
#648=DIRECTION('',(0.00872653549837393,0.,0.999961923064171));
#649=DIRECTION('',(0.,1.,0.));
#650=DIRECTION('center_axis',(0.999961923064171,0.,-0.00872653549837393));
#651=DIRECTION('ref_axis',(-0.00872653549837393,0.,-0.999961923064171));
#652=DIRECTION('',(0.,1.,0.));
#653=DIRECTION('',(-0.00869822617604235,-0.0804833973382438,-0.99671799603212));
#654=DIRECTION('',(0.,1.,0.));
#655=DIRECTION('',(0.00872653549837393,0.,0.999961923064171));
#656=DIRECTION('center_axis',(0.000702341223901918,-0.996755949444444,0.080480332777088));
#657=DIRECTION('ref_axis',(-0.00869822617604235,-0.0804833973382438,-0.99671799603212));
#658=DIRECTION('center_axis',(0.000702341223901918,-0.996755949444444,0.080480332777088));
#659=DIRECTION('ref_axis',(0.00869822617604235,0.0804833973382438,0.99671799603212));
#660=DIRECTION('',(-0.999961923064171,0.,0.00872653549837393));
#661=DIRECTION('center_axis',(0.000702341223901918,-0.996755949444444,0.080480332777088));
#662=DIRECTION('ref_axis',(-0.00869822617604235,-0.0804833973382438,-0.99671799603212));
#663=DIRECTION('',(0.00869822617604235,0.0804833973382438,0.99671799603212));
#664=DIRECTION('center_axis',(0.000702341223901918,-0.996755949444444,0.080480332777088));
#665=DIRECTION('ref_axis',(-0.00869822617604235,-0.0804833973382438,-0.99671799603212));
#666=DIRECTION('',(0.999961923064171,0.,-0.00872653549837393));
#667=DIRECTION('center_axis',(0.000702341223901918,-0.996755949444444,0.080480332777088));
#668=DIRECTION('ref_axis',(0.00869822617604235,0.0804833973382438,0.99671799603212));
#669=DIRECTION('center_axis',(-0.000702341223901918,0.996755949444444,-0.080480332777088));
#670=DIRECTION('ref_axis',(0.00869822617604235,0.0804833973382438,0.99671799603212));
#671=DIRECTION('center_axis',(-0.999961923064171,0.,0.00872653549837393));
#672=DIRECTION('ref_axis',(0.00872653549837393,0.,0.999961923064171));
#673=DIRECTION('',(0.,-1.,0.));
#674=DIRECTION('',(0.,1.,0.));
#675=DIRECTION('center_axis',(-0.00872653549837398,0.,-0.999961923064171));
#676=DIRECTION('ref_axis',(-0.999961923064171,0.,0.00872653549837398));
#677=DIRECTION('',(0.,1.,0.));
#678=DIRECTION('',(0.,1.,0.));
#679=DIRECTION('center_axis',(0.,1.,0.));
#680=DIRECTION('ref_axis',(0.00872653549837393,0.,0.999961923064171));
#681=DIRECTION('',(0.00872653278917511,0.,0.999961923087814));
#682=DIRECTION('',(0.00872653549837393,0.,0.999961923064171));
#683=DIRECTION('center_axis',(0.,-1.,0.));
#684=DIRECTION('ref_axis',(-0.00872653549837393,0.,-0.999961923064171));
#685=DIRECTION('',(-0.999961923064171,0.,0.00872653549837393));
#686=DIRECTION('center_axis',(0.999961923087814,0.,-0.00872653278917511));
#687=DIRECTION('ref_axis',(0.00872653278917511,0.,0.999961923087814));
#688=DIRECTION('',(-0.00872653278917511,0.,-0.999961923087814));
#689=DIRECTION('',(0.,-1.,0.));
#690=DIRECTION('',(0.,-1.,0.));
#691=DIRECTION('center_axis',(0.00872653549837393,0.,0.999961923064171));
#692=DIRECTION('ref_axis',(-0.999961923064171,0.,0.00872653549837393));
#693=DIRECTION('',(0.999961923064171,0.,-0.00872653549837393));
#694=DIRECTION('',(0.,-1.,0.));
#695=DIRECTION('center_axis',(0.,-1.,0.));
#696=DIRECTION('ref_axis',(-0.00872653549837393,0.,-0.999961923064171));
#697=DIRECTION('center_axis',(0.,1.,0.));
#698=DIRECTION('ref_axis',(-0.00872653549837393,0.,-0.999961923064171));
#699=DIRECTION('',(0.,-1.,0.));
#700=DIRECTION('center_axis',(0.999961923064171,0.,-0.00872653549837393));
#701=DIRECTION('ref_axis',(0.00872653549837393,0.,0.999961923064171));
#702=DIRECTION('',(-0.00872653549837393,0.,-0.999961923064171));
#703=DIRECTION('center_axis',(0.,-1.,0.));
#704=DIRECTION('ref_axis',(0.999961923064171,0.,-0.00872653549837393));
#705=DIRECTION('',(0.,1.,0.));
#706=DIRECTION('center_axis',(0.,-1.,0.));
#707=DIRECTION('ref_axis',(0.999961923064171,0.,-0.00872653549837393));
#708=DIRECTION('center_axis',(0.,1.,0.));
#709=DIRECTION('ref_axis',(0.999961923064171,0.,-0.00872653549837393));
#710=DIRECTION('center_axis',(0.,-1.,0.));
#711=DIRECTION('ref_axis',(-0.999961923064171,0.,0.00872653549837393));
#712=DIRECTION('',(-0.999961923064171,0.,0.00872653549837393));
#713=DIRECTION('center_axis',(0.,-1.,0.));
#714=DIRECTION('ref_axis',(0.00872653549837393,0.,0.999961923064171));
#715=DIRECTION('center_axis',(0.,-1.,0.));
#716=DIRECTION('ref_axis',(0.999961923064171,0.,-0.00872653549837416));
#717=DIRECTION('',(0.999961923064171,0.,-0.00872653549837393));
#718=DIRECTION('center_axis',(0.,-1.,0.));
#719=DIRECTION('ref_axis',(-0.00872653549837393,0.,-0.999961923064171));
#720=DIRECTION('',(-0.00872653549837393,0.,-0.999961923064171));
#721=DIRECTION('center_axis',(0.00872653549837393,0.,0.999961923064171));
#722=DIRECTION('ref_axis',(0.999961923064171,0.,-0.00872653549837393));
#723=DIRECTION('',(0.,1.,0.));
#724=DIRECTION('',(0.,1.,0.));
#725=DIRECTION('center_axis',(0.,1.,0.));
#726=DIRECTION('ref_axis',(0.999961923064171,0.,-0.00872653549837416));
#727=DIRECTION('center_axis',(0.,1.,0.));
#728=DIRECTION('ref_axis',(0.00872653549837393,0.,0.999961923064171));
#729=DIRECTION('',(0.,1.,0.));
#730=DIRECTION('center_axis',(-0.00872653549837393,0.,-0.999961923064171));
#731=DIRECTION('ref_axis',(-0.999961923064171,0.,0.00872653549837393));
#732=DIRECTION('',(0.,-1.,0.));
#733=DIRECTION('center_axis',(0.,1.,0.));
#734=DIRECTION('ref_axis',(-0.00872653549837393,0.,-0.999961923064171));
#735=DIRECTION('',(0.,1.,0.));
#736=DIRECTION('center_axis',(0.999961923064171,0.,-0.00872653549837393));
#737=DIRECTION('ref_axis',(-0.00872653549837393,0.,-0.999961923064171));
#738=DIRECTION('',(0.,1.,0.));
#739=DIRECTION('center_axis',(0.,1.,0.));
#740=DIRECTION('ref_axis',(-0.999961923064171,0.,0.00872653549837393));
#741=DIRECTION('center_axis',(0.,1.,0.));
#742=DIRECTION('ref_axis',(-0.00872653549837393,0.,-0.999961923064171));
#743=DIRECTION('center_axis',(0.,1.,0.));
#744=DIRECTION('ref_axis',(0.999961923064171,0.,-0.00872653549837393));
#745=DIRECTION('center_axis',(0.,1.,0.));
#746=DIRECTION('ref_axis',(0.00872653549837393,0.,0.999961923064171));
#747=DIRECTION('',(0.,1.,0.));
#748=DIRECTION('center_axis',(0.00872653549837393,0.,0.999961923064171));
#749=DIRECTION('ref_axis',(0.999961923064171,0.,-0.00872653549837393));
#750=DIRECTION('',(0.,1.,0.));
#751=DIRECTION('center_axis',(0.,1.,0.));
#752=DIRECTION('ref_axis',(-0.999961923064171,0.,0.00872653549837393));
#753=CARTESIAN_POINT('',(0.,0.,0.));
#754=CARTESIAN_POINT('Origin',(338.999809615321,0.,4.95636732250806));
#755=CARTESIAN_POINT('',(339.107838938109,-1.11022302462516E-15,17.3353015951725));
#756=CARTESIAN_POINT('',(339.107838938109,10.,17.3353015951725));
#757=CARTESIAN_POINT('',(339.107838938109,5.,17.3353015951726));
#758=CARTESIAN_POINT('',(338.999809615321,10.,4.95636732250806));
#759=CARTESIAN_POINT('',(338.956176937829,10.,-0.0434422928127265));
#760=CARTESIAN_POINT('',(338.999809615321,0.,4.95636732250806));
#761=CARTESIAN_POINT('',(338.999809615321,0.,4.95636732250806));
#762=CARTESIAN_POINT('',(339.320509794886,0.,41.7049679951164));
#763=CARTESIAN_POINT('Origin',(339.107838938109,10.,17.3353015951725));
#764=CARTESIAN_POINT('',(341.08661798422,10.,14.8948944329584));
#765=CARTESIAN_POINT('',(290.285815813661,10.,77.5469837134131));
#766=CARTESIAN_POINT('',(341.08661798422,-1.11022302462516E-15,14.8948944329584));
#767=CARTESIAN_POINT('',(341.08661798422,-1.11022302462516E-15,14.8948944329584));
#768=CARTESIAN_POINT('',(341.08661798422,5.,14.8948944329584));
#769=CARTESIAN_POINT('Origin',(341.243029949734,10.,32.8179304253079));
#770=CARTESIAN_POINT('',(341.243029949734,10.,32.8179304253079));
#771=CARTESIAN_POINT('',(339.220030417555,10.,30.191171780861));
#772=CARTESIAN_POINT('',(320.781248866177,10.,6.24938234260046));
#773=CARTESIAN_POINT('',(341.243029949734,-1.11022302462516E-15,32.8179304253079));
#774=CARTESIAN_POINT('',(341.243029949734,5.,32.8179304253079));
#775=CARTESIAN_POINT('',(339.220030417555,-1.11022302462516E-15,30.191171780861));
#776=CARTESIAN_POINT('',(339.220030417555,-1.11022302462516E-15,30.191171780861));
#777=CARTESIAN_POINT('',(339.220030417555,5.,30.1911717808609));
#778=CARTESIAN_POINT('Origin',(170.147664015074,10.,79.9327164346991));
#779=CARTESIAN_POINT('',(340.282610333582,10.,151.950770012941));
#780=CARTESIAN_POINT('',(338.956176937829,10.,-0.0434422928127265));
#781=CARTESIAN_POINT('',(335.326433395753,10.,156.994212305754));
#782=CARTESIAN_POINT('Origin',(335.282800718261,10.,151.994402690433));
#783=CARTESIAN_POINT('',(6.33896070764046,10.,159.865242484719));
#784=CARTESIAN_POINT('',(340.326243011074,10.,156.950579628262));
#785=CARTESIAN_POINT('',(1.29551841482773,10.,154.90906554689));
#786=CARTESIAN_POINT('Origin',(6.29532803014859,10.,154.865432869398));
#787=CARTESIAN_POINT('',(0.01271769656678,10.,7.91466285645689));
#788=CARTESIAN_POINT('',(1.33915109231962,10.,159.908875162211));
#789=CARTESIAN_POINT('',(4.96889463439577,10.,2.87122056364417));
#790=CARTESIAN_POINT('Origin',(5.01252731188764,10.,7.87103017896502));
#791=CARTESIAN_POINT('',(333.956367322508,10.,0.000190384679072397));
#792=CARTESIAN_POINT('',(-0.0309149809250897,10.,2.91485324113604));
#793=CARTESIAN_POINT('Origin',(334.,10.,4.99999999999993));
#794=CARTESIAN_POINT('',(340.999733461449,10.,4.93891425151131));
#795=CARTESIAN_POINT('',(342.343619928199,10.,158.933050403394));
#796=CARTESIAN_POINT('',(333.938914251511,10.,-1.9997334614493));
#797=CARTESIAN_POINT('Origin',(334.,10.,4.99999999999993));
#798=CARTESIAN_POINT('',(4.95144156339902,10.,0.871296717515779));
#799=CARTESIAN_POINT('',(340.938647712961,10.,-2.06081920993783));
#800=CARTESIAN_POINT('',(-1.98720614956159,10.,7.93211592745362));
#801=CARTESIAN_POINT('Origin',(5.01252731188764,10.,7.871030178965));
#802=CARTESIAN_POINT('',(-0.704405431300622,10.,154.926518617887));
#803=CARTESIAN_POINT('',(-2.04829189805018,10.,0.932382466004451));
#804=CARTESIAN_POINT('',(6.35641377863722,10.,161.865166330847));
#805=CARTESIAN_POINT('Origin',(6.2953280301486,10.,154.865432869398));
#806=CARTESIAN_POINT('',(335.34388646675,10.,158.994136151882));
#807=CARTESIAN_POINT('',(-0.643319682811977,10.,161.926252079336));
#808=CARTESIAN_POINT('',(342.28253417971,10.,151.933316941944));
#809=CARTESIAN_POINT('Origin',(335.282800718261,10.,151.994402690433));
#810=CARTESIAN_POINT('',(342.343619928199,10.,158.933050403394));
#811=CARTESIAN_POINT('Origin',(338.999809615321,0.,4.95636732250806));
#812=CARTESIAN_POINT('',(340.282610333582,0.,151.950770012941));
#813=CARTESIAN_POINT('',(339.320509794886,0.,41.7049679951164));
#814=CARTESIAN_POINT('',(340.282610333582,0.,151.950770012941));
#815=CARTESIAN_POINT('Origin',(342.28253417971,0.,151.933316941944));
#816=CARTESIAN_POINT('',(342.28253417971,-2.56521759621845,151.933316941944));
#817=CARTESIAN_POINT('',(342.28253417971,0.,151.933316941944));
#818=CARTESIAN_POINT('',(340.999733461449,-14.4347824734746,4.93891425151131));
#819=CARTESIAN_POINT('',(340.938647712701,-14.9999998509884,-2.060819239739));
#820=CARTESIAN_POINT('',(340.999733461449,0.,4.93891425151131));
#821=CARTESIAN_POINT('',(341.72364140114,-1.11022302462516E-15,87.8905478785185));
#822=CARTESIAN_POINT('Origin',(1.35660418399201,-2.00000002980232,161.908801377534));
#823=CARTESIAN_POINT('',(335.34388646675,-2.,158.994136151882));
#824=CARTESIAN_POINT('Origin',(335.282800718261,-2.56521759621845,151.994402690433));
#825=CARTESIAN_POINT('',(6.35641377863722,-2.,161.865166330847));
#826=CARTESIAN_POINT('',(-0.643319682811977,-2.,161.926252079336));
#827=CARTESIAN_POINT('',(-0.704405431300622,-2.56521759621845,154.926518617887));
#828=CARTESIAN_POINT('Origin',(6.2953280301486,-2.56521759621845,154.865432869398));
#829=CARTESIAN_POINT('',(-1.98720614956159,-14.4347824734746,7.93211592745362));
#830=CARTESIAN_POINT('',(-2.04829189831025,-14.9999998509884,0.932382436203255));
#831=CARTESIAN_POINT('',(4.95144156339902,-14.999999848582,0.871296717515779));
#832=CARTESIAN_POINT('Origin',(5.01252731188764,-14.4347824734746,7.871030178965));
#833=CARTESIAN_POINT('',(333.938914251511,-14.999999848582,-1.9997334614493));
#834=CARTESIAN_POINT('',(-0.0483680521819086,-14.9999998509884,0.914929365206507));
#835=CARTESIAN_POINT('Origin',(334.,-14.4347824734746,4.99999999999993));
#836=CARTESIAN_POINT('',(5.52996136022731,-14.27329178645,9.8665908615183));
#837=CARTESIAN_POINT('Origin',(7.02990424482357,-14.27329178645,9.85350105827074));
#838=CARTESIAN_POINT('Origin',(-1.98720614956156,0.,7.93211592745362));
#839=CARTESIAN_POINT('',(-0.704405431300623,0.,154.926518617887));
#840=CARTESIAN_POINT('',(-1.98720614956159,0.,7.93211592745362));
#841=CARTESIAN_POINT('Origin',(333.938914251511,0.,-1.99973346144921));
#842=CARTESIAN_POINT('',(4.95144156339902,0.,0.871296717515777));
#843=CARTESIAN_POINT('',(333.938914251511,0.,-1.9997334614493));
#844=CARTESIAN_POINT('Origin',(-0.0483680521819086,-2.00000002980232,0.914929365206507));
#845=CARTESIAN_POINT('',(1.01267962098555,-2.,7.9059363209467));
#846=CARTESIAN_POINT('',(1.01704288809533,-2.,8.40591736444387));
#847=CARTESIAN_POINT('',(1.01704288809533,-2.,8.40591736444387));
#848=CARTESIAN_POINT('',(1.02140615512932,-2.,8.90589824402269));
#849=CARTESIAN_POINT('',(1.01704288809533,-2.,8.40591736444387));
#850=CARTESIAN_POINT('',(1.11369628751295,-2.,7.90505476185325));
#851=CARTESIAN_POINT('Origin',(6.02121577045018,-2.,8.86226556653082));
#852=CARTESIAN_POINT('',(5.01252731188764,-2.,7.87103017896502));
#853=CARTESIAN_POINT('Origin',(1.01267962098555,0.,7.9059363209467));
#854=CARTESIAN_POINT('',(1.01704288809533,0.,8.40591736444387));
#855=CARTESIAN_POINT('',(1.01267962098555,0.,7.9059363209467));
#856=CARTESIAN_POINT('',(1.01704288809533,0.,8.40591736444387));
#857=CARTESIAN_POINT('',(1.01704288809533,0.,8.40591736444387));
#858=CARTESIAN_POINT('',(1.01267962098555,0.,7.9059363209467));
#859=CARTESIAN_POINT('Origin',(1.11369628751295,0.,7.90505476185325));
#860=CARTESIAN_POINT('',(1.11369628751295,0.,7.90505476185325));
#861=CARTESIAN_POINT('',(5.01252731188764,0.,7.87103017896502));
#862=CARTESIAN_POINT('',(1.11369628751295,0.,7.90505476185325));
#863=CARTESIAN_POINT('Origin',(6.02121577045018,0.,8.86226556653082));
#864=CARTESIAN_POINT('',(1.02140615512932,0.,8.90589824402269));
#865=CARTESIAN_POINT('Origin',(6.02121577045018,0.,8.86226556653082));
#866=CARTESIAN_POINT('',(1.02140615512932,0.,8.90589824402269));
#867=CARTESIAN_POINT('Origin',(1.01704288809533,0.,8.40591736444387));
#868=CARTESIAN_POINT('',(1.01704288809533,0.,8.40591736444387));
#869=CARTESIAN_POINT('Origin',(7.02990424482357,0.,9.85350105827074));
#870=CARTESIAN_POINT('',(5.52996136022731,0.,9.8665908615183));
#871=CARTESIAN_POINT('',(5.52996136022731,0.,9.8665908615183));
#872=CARTESIAN_POINT('Origin',(7.02990424482357,0.,9.85350105827074));
#873=CARTESIAN_POINT('Origin',(170.147664015074,0.,79.9327164346991));
#874=CARTESIAN_POINT('',(6.33896070764046,0.,159.865242484719));
#875=CARTESIAN_POINT('',(1.29551841482773,0.,154.90906554689));
#876=CARTESIAN_POINT('Origin',(6.29532803014859,0.,154.865432869398));
#877=CARTESIAN_POINT('',(335.326433395753,0.,156.994212305754));
#878=CARTESIAN_POINT('',(253.079565223725,0.,157.711969850495));
#879=CARTESIAN_POINT('Origin',(335.282800718261,0.,151.994402690433));
#880=CARTESIAN_POINT('',(333.956367322508,0.,0.000190384679070177));
#881=CARTESIAN_POINT('Origin',(334.,0.,4.99999999999993));
#882=CARTESIAN_POINT('',(4.96889463439577,0.,2.87122056364417));
#883=CARTESIAN_POINT('',(87.2157628064238,0.,2.15346301890291));
#884=CARTESIAN_POINT('',(0.01271769656678,0.,7.91466285645689));
#885=CARTESIAN_POINT('Origin',(5.01252731188764,0.,7.87103017896502));
#886=CARTESIAN_POINT('',(0.974818235262506,0.,118.160464874282));
#887=CARTESIAN_POINT('Origin',(4.96889463439577,0.,2.87122056364417));
#888=CARTESIAN_POINT('',(333.956367322508,0.,0.000190384679070177));
#889=CARTESIAN_POINT('',(4.96889463439577,0.,2.87122056364417));
#890=CARTESIAN_POINT('Origin',(334.,0.,4.99999999999993));
#891=CARTESIAN_POINT('Origin',(335.282800718261,0.,151.994402690433));
#892=CARTESIAN_POINT('',(335.326433395753,0.,156.994212305754));
#893=CARTESIAN_POINT('Origin',(335.326433395753,0.,156.994212305754));
#894=CARTESIAN_POINT('',(6.33896070764046,0.,159.865242484719));
#895=CARTESIAN_POINT('Origin',(5.01252731188764,0.,7.87103017896502));
#896=CARTESIAN_POINT('',(0.01271769656678,0.,7.91466285645689));
#897=CARTESIAN_POINT('Origin',(1.29551841482775,0.,154.90906554689));
#898=CARTESIAN_POINT('',(1.29551841482773,0.,154.90906554689));
#899=CARTESIAN_POINT('Origin',(6.29532803014859,0.,154.865432869398));
#900=CARTESIAN_POINT('Origin',(5.01252731188764,0.,7.871030178965));
#901=CARTESIAN_POINT('Origin',(334.,0.,4.99999999999993));
#902=CARTESIAN_POINT('Origin',(335.282800718261,0.,151.994402690433));
#903=CARTESIAN_POINT('',(335.34388646675,0.,158.994136151882));
#904=CARTESIAN_POINT('Origin',(6.35641377863722,0.,161.865166330847));
#905=CARTESIAN_POINT('',(6.35641377863722,0.,161.865166330847));
#906=CARTESIAN_POINT('Origin',(6.2953280301486,0.,154.865432869398));
#907=UNCERTAINTY_MEASURE_WITH_UNIT(LENGTH_MEASURE(0.01),#911,
'DISTANCE_ACCURACY_VALUE',
'Maximum model space distance between geometric entities at asserted c
onnectivities');
#908=UNCERTAINTY_MEASURE_WITH_UNIT(LENGTH_MEASURE(0.01),#911,
'DISTANCE_ACCURACY_VALUE',
'Maximum model space distance between geometric entities at asserted c
onnectivities');
#909=(
GEOMETRIC_REPRESENTATION_CONTEXT(3)
GLOBAL_UNCERTAINTY_ASSIGNED_CONTEXT((#907))
GLOBAL_UNIT_ASSIGNED_CONTEXT((#911,#913,#914))
REPRESENTATION_CONTEXT('','3D')
);
#910=(
GEOMETRIC_REPRESENTATION_CONTEXT(3)
GLOBAL_UNCERTAINTY_ASSIGNED_CONTEXT((#908))
GLOBAL_UNIT_ASSIGNED_CONTEXT((#911,#913,#914))
REPRESENTATION_CONTEXT('','3D')
);
#911=(
LENGTH_UNIT()
NAMED_UNIT(*)
SI_UNIT(.MILLI.,.METRE.)
);
#912=(
LENGTH_UNIT()
NAMED_UNIT(*)
SI_UNIT($,.METRE.)
);
#913=(
NAMED_UNIT(*)
PLANE_ANGLE_UNIT()
SI_UNIT($,.RADIAN.)
);
#914=(
NAMED_UNIT(*)
SI_UNIT($,.STERADIAN.)
SOLID_ANGLE_UNIT()
);
#915=SHAPE_DEFINITION_REPRESENTATION(#916,#917);
#916=PRODUCT_DEFINITION_SHAPE('',$,#919);
#917=SHAPE_REPRESENTATION('',(#551),#909);
#918=PRODUCT_DEFINITION_CONTEXT('part definition',#923,'design');
#919=PRODUCT_DEFINITION('2026-10-06-18-17-51-210','Case',#920,#918);
#920=PRODUCT_DEFINITION_FORMATION('',$,#925);
#921=PRODUCT_RELATED_PRODUCT_CATEGORY('Case','Case',(#925));
#922=APPLICATION_PROTOCOL_DEFINITION('international standard',
'automotive_design',2009,#923);
#923=APPLICATION_CONTEXT(
'Core Data for Automotive Mechanical Design Process');
#924=PRODUCT_CONTEXT('part definition',#923,'mechanical');
#925=PRODUCT('2026-10-06-18-17-51-210','Case',$,(#924));
#926=PRESENTATION_STYLE_ASSIGNMENT((#927));
#927=SURFACE_STYLE_USAGE(.BOTH.,#928);
#928=SURFACE_SIDE_STYLE('',(#929));
#929=SURFACE_STYLE_FILL_AREA(#930);
#930=FILL_AREA_STYLE('Steel - Satin',(#931));
#931=FILL_AREA_STYLE_COLOUR('Steel - Satin',#932);
#932=COLOUR_RGB('Steel - Satin',0.627450980392157,0.627450980392157,0.627450980392157);
ENDSEC;
END-ISO-10303-21;
